<?xml version="1.0" standalone="no"?>
<!DOCTYPE svg PUBLIC "-//W3C//DTD SVG 20010904//EN"
 "http://www.w3.org/TR/2001/REC-SVG-20010904/DTD/svg10.dtd">
<svg version="1.0" xmlns="http://www.w3.org/2000/svg"
 width="1408.000000pt" height="768.000000pt" viewBox="0 0 1408.000000 768.000000"
 preserveAspectRatio="xMidYMid meet">

<g transform="translate(0.000000,768.000000) scale(0.100000,-0.100000)"
fill="#000000" stroke="none">
<path d="M8156 5788 c-9 -17 -16 -45 -16 -63 0 -26 -13 -45 -66 -99 -36 -37
-77 -71 -91 -77 -14 -5 -92 -9 -175 -8 -146 2 -152 3 -202 30 -45 26 -119 62
-181 89 -127 55 -344 84 -600 78 l-170 -4 -60 -41 c-155 -106 -267 -275 -310
-466 -26 -117 -12 -382 20 -382 5 0 17 20 25 43 35 94 143 187 258 222 56 18
93 20 301 20 248 0 277 -4 366 -52 124 -66 216 -204 254 -379 17 -82 18 -84
47 -83 76 3 326 25 379 34 33 6 83 10 110 9 28 0 56 0 64 0 11 1 13 17 8 84
-8 121 -49 269 -109 394 -47 97 -47 98 117 101 77 1 144 7 149 12 6 6 4 15 -4
25 -10 12 -35 15 -114 15 -55 0 -118 -5 -139 -11 -21 -5 -48 -7 -60 -3 -30 9
-197 184 -197 206 0 16 12 18 126 18 l127 0 94 95 c53 53 100 95 107 94 43 -5
46 -1 46 66 l0 65 -44 0 c-40 0 -46 -3 -60 -32z"/>
<path d="M5522 5578 c-7 -7 -12 -16 -12 -20 0 -4 46 -55 102 -113 l102 -105
89 0 c96 0 127 10 127 40 0 19 -7 20 -102 20 l-101 0 -91 95 c-50 52 -94 95
-97 95 -3 0 -10 -5 -17 -12z"/>
<path d="M8547 5483 c-8 -7 -10 -43 -2 -43 16 0 55 26 55 37 0 13 -41 18 -53
6z"/>
<path d="M5285 5330 c-10 -16 24 -56 137 -165 l103 -100 105 0 c101 0 105 1
108 23 3 22 1 22 -94 22 l-97 0 -117 115 c-113 112 -132 126 -145 105z"/>
<path d="M8360 5291 c-19 -16 -32 -32 -27 -37 4 -4 8 -5 10 -3 1 2 15 19 31
37 37 40 31 41 -14 3z"/>
<path d="M6510 4363 c1 -224 116 -439 320 -597 53 -42 265 -176 276 -176 8 0
180 -86 219 -109 17 -10 43 -21 58 -25 30 -7 204 -173 228 -218 22 -42 60
-120 74 -153 6 -16 20 -47 29 -68 12 -29 16 -70 16 -180 0 -78 -5 -160 -11
-182 -6 -22 -13 -51 -15 -65 -3 -14 -9 -34 -14 -45 -5 -11 -19 -45 -31 -75
-12 -30 -28 -62 -36 -71 -7 -8 -13 -19 -13 -22 0 -4 -12 -26 -26 -48 -14 -23
-23 -43 -21 -45 5 -5 91 39 157 81 46 29 179 141 198 167 7 9 19 23 26 31 22
22 101 147 124 197 39 86 52 118 52 129 0 6 4 19 9 29 6 9 17 74 26 143 14
116 14 136 -1 245 -9 65 -22 133 -30 151 -8 17 -14 36 -14 42 0 6 -4 19 -9 29
-6 9 -20 40 -33 67 -13 28 -26 52 -30 53 -5 2 -8 9 -8 14 0 12 0 12 -87 107
-56 60 -176 151 -201 151 -7 0 -12 3 -12 8 0 4 -30 21 -68 39 -110 51 -203 93
-209 93 -3 0 -21 7 -41 16 -109 47 -153 63 -192 71 -14 3 -32 11 -40 18 -8 7
-26 15 -40 18 -63 14 -116 33 -128 44 -7 7 -24 13 -37 13 -13 0 -26 4 -29 9
-3 5 -17 12 -31 15 -14 4 -53 19 -87 35 -35 16 -83 36 -108 51 -25 9 -78 33
-118 51 -39 19 -77 34 -82 34 -6 0 -10 -29 -10 -67z"/>
<path d="M6180 3270 c-8 -5 -62 -10 -120 -10 -58 0 -125 -5 -150 -11 -25 -6
-83 -11 -130 -11 -114 0 -119 -3 -115 -79 9 -154 96 -392 198 -541 47 -69 192
-210 267 -259 61 -41 156 -90 210 -109 19 -6 46 -18 60 -25 14 -7 47 -16 75
-21 27 -4 63 -13 80 -19 16 -7 44 -10 62 -8 18 3 45 -2 64 -11 46 -23 423 -24
445 -1 9 8 24 15 35 15 59 0 202 119 267 223 50 81 77 148 107 267 27 106 12
400 -20 400 -5 0 -25 -28 -44 -63 -39 -70 -121 -154 -178 -182 -21 -10 -46
-22 -55 -26 -10 -5 -30 -9 -45 -9 -16 0 -53 -7 -83 -15 -63 -17 -333 -21 -390
-6 -19 6 -52 12 -73 15 -20 3 -45 10 -55 14 -9 5 -39 20 -65 33 -127 63 -234
238 -259 424 -2 15 -12 21 -38 23 -19 1 -42 -2 -50 -8z"/>
</g>
</svg>

